<?xml version="1.0" encoding="UTF-8" standalone="no"?>
<!-- Created with Inkscape (http://www.inkscape.org/) -->

<svg
   xmlns:svg="http://www.w3.org/2000/svg"
   xmlns="http://www.w3.org/2000/svg"
   version="1.0"
   width="100%"
   height="100%"
   id="svg2">
  <defs
     id="defs4">
    <clipPath
       id="clipPath2438">
      <path
         d="M 0,145 356,145 356,0 0,0 0,145 z"
         id="path2440" />
    </clipPath>
  </defs>
  <g
     transform="translate(465.14355,-292.71933)"
     id="layer1">
    <g
       transform="matrix(4.6214286,0,0,-4.6214286,-546.40906,852.92336)"
       id="g2432">
      <g
         id="g2434">
        <g
           clip-path="url(#clipPath2438)"
           id="g2436">
          <g
             transform="translate(183.4854,62.0938)"
             id="g2442">
            <path
               d="m 0,0 c -5.726,-4.5 -12.928,-6.875 -19.474,-6.875 -18.986,0 -31.426,15.059 -31.426,30.934 0,15.879 12.438,30.933 31.426,30.933 6.546,0 13.5,-2.208 18.902,-6.629 l -2.781,-5.074 c -4.417,4.092 -10.228,6.138 -16.121,6.138 -14.403,0 -25.207,-11.456 -25.207,-25.37 0,-13.911 10.802,-25.37 25.207,-25.37 5.239,0 11.454,2.21 16.369,6.056 L 0,0 z"
               id="path2444"
               style="fill:#100f0d;fill-opacity:1;fill-rule:nonzero;stroke:none" />
          </g>
          <g
             transform="translate(197.7266,60.6221)"
             id="g2446">
            <path
               d="m 0,0 c 4.42,0 6.464,4.009 6.464,6.548 0,2.535 -2.042,6.546 -6.464,6.546 -4.417,0 -6.465,-4.009 -6.465,-6.546 C -6.465,4.011 -4.419,0 0,0 M 7.284,-1.229 C 4.91,-3.847 2.291,-4.91 -0.491,-4.91 c -6.628,0 -10.882,6.14 -10.882,11.375 0,6.302 4.991,11.539 10.8,11.539 2.781,0 5.568,-1.228 6.875,-2.7 l 0.162,0 0,2.946 c 0,3.271 -2.042,4.993 -6.217,4.993 -1.721,0 -3.19,-0.165 -4.502,-0.327 l 1.145,4.5 c 0.983,0.327 2.537,0.408 4.421,0.408 7.853,0 10.065,-4.173 10.065,-9.574 l 0,-21.687 -4.092,-0.982 0,3.19 z"
               id="path2448"
               style="fill:#100f0d;fill-opacity:1;fill-rule:nonzero;stroke:none" />
          </g>
          <g
             transform="translate(238.8086,81.1631)"
             id="g2450">
            <path
               d="m 0,0 c -1.884,2.044 -4.092,2.7 -6.631,2.7 -5.154,0 -11.292,-4.5 -11.292,-10.803 0,-0.572 0,-1.145 0.163,-1.719 L 0,0 z m -16.368,-14.238 c 1.717,-3.438 5.649,-6.303 9.903,-6.303 3.11,0 6.136,1.063 9.327,3.026 l 0.983,-4.993 c -3.601,-1.963 -7.366,-2.945 -10.31,-2.945 -9.411,0 -16.368,7.938 -16.368,16.368 0,8.43 6.957,16.368 16.368,16.368 6.79,0 11.373,-3.928 13.829,-8.757 l -23.732,-12.764 z"
               id="path2452"
               style="fill:#100f0d;fill-opacity:1;fill-rule:nonzero;stroke:none" />
          </g>
          <g
             transform="translate(256.1592,116.5986)"
             id="g2454">
            <path
               d="m 0,0 0,-59.413 -5.239,-0.983 0,59.414 L 0,0 z"
               id="path2456"
               style="fill:#100f0d;fill-opacity:1;fill-rule:nonzero;stroke:none" />
          </g>
          <g
             transform="translate(264.9946,86.9746)"
             id="g2458">
            <path
               d="m 0,0 5.239,0.98 0,-20.458 c 0,-3.436 2.294,-6.548 5.892,-6.548 5.077,0 7.776,4.092 7.776,8.265 l 0,17.761 5.239,0.98 0,-30.769 -4.91,-0.982 0,3.846 c -2.375,-2.783 -5.319,-4.338 -8.592,-4.338 -4.583,0 -10.642,3.11 -10.642,10.721 L 0.002,0 0,0 z"
               id="path2460"
               style="fill:#100f0d;fill-opacity:1;fill-rule:nonzero;stroke:none" />
          </g>
          <g
             transform="translate(298.3008,86.9746)"
             id="g2462">
            <path
               d="m 0,0 4.912,0.98 0,-2.618 c 2.452,2.291 5.153,3.109 7.528,3.109 2.782,0 5.564,-1.636 7.777,-4.909 2.046,3.026 4.991,4.909 9.002,4.909 4.829,0 10.065,-3.598 10.065,-10.311 l 0,-20.949 -5.238,-0.982 0,19.64 c 0,4.909 -2.294,7.365 -5.812,7.365 -2.947,0 -5.973,-2.699 -5.973,-7.528 l 0,-18.495 -5.24,-0.982 0,19.64 c 0,4.909 -2.292,7.365 -5.81,7.365 -2.947,0 -5.978,-2.699 -5.978,-7.528 l 0,-18.495 -5.239,-0.982 L -0.006,0 0,0 z"
               id="path2464"
               style="fill:#100f0d;fill-opacity:1;fill-rule:nonzero;stroke:none" />
          </g>
          <g
             transform="translate(26.3975,121.2188)"
             id="g2466">
            <path
               d="m 0,0 c -4.85,0 -8.813,-3.962 -8.813,-8.813 l 0,-82.375 C -8.813,-96.038 -4.85,-100 0,-100 l 82.375,0 c 4.85,0 8.813,3.962 8.813,8.812 l 0,82.375 C 91.188,-3.962 87.225,0 82.375,0 L 0,0 z"
               id="path2468"
               style="fill:#100f0d;fill-opacity:1;fill-rule:nonzero;stroke:none" />
          </g>
          <g
             transform="translate(32.085,112.2188)"
             id="g2470">
            <path
               d="M 0,0 -1.438,-3.656 -5.5,-3 -2.844,-6 -5.5,-9 -1.438,-8.344 0,-12 1.438,-8.344 5.5,-9 2.844,-6 5.5,-3 1.438,-3.656 0,0 z M 66.188,5 C 47.822,1.765 30.218,-6.907 16.031,-21.094 1.195,-35.929 -7.641,-54.507 -10.5,-73.781 l 0,-8.407 c 0,-2.703 2.109,-4.812 4.812,-4.812 l 82.376,0 c 2.703,0 4.812,2.109 4.812,4.812 l 0,82.376 C 81.5,2.891 79.391,5 76.688,5 l -10.5,0 z"
               id="path2472"
               style="fill:#ffffff;fill-opacity:1;fill-rule:nonzero;stroke:none" />
          </g>
          <g
             transform="translate(334.6406,33.8701)"
             id="g2474">
            <path
               d="m 0,0 c 0,-1.522 -0.199,-2.671 -0.698,-3.395 -0.525,-0.949 -1.323,-1.522 -2.546,-1.522 -1.198,0 -1.997,0.573 -2.522,1.522 -0.524,0.849 -0.723,2.147 -0.723,3.819 0,1.873 0.249,3.121 0.799,3.795 0.548,0.924 1.347,1.373 2.446,1.373 1.073,0 1.896,-0.425 2.446,-1.348 C -0.249,3.445 0,2.072 0,0.025 L 0,0 m 2.546,0.849 c 0,1.997 -0.399,3.569 -1.298,4.618 -1.023,1.322 -2.52,2.096 -4.492,2.096 -2.197,0 -3.77,-0.999 -4.594,-2.72 -0.823,-1.048 -1.198,-2.597 -1.198,-4.519 0.025,-2.745 0.524,-4.443 1.448,-5.366 1.099,-1.373 2.596,-1.897 4.344,-1.897 1.747,0 3.245,0.524 4.343,1.921 0.923,1.075 1.472,2.897 1.472,5.842 L 2.546,0.849 m -16.165,11.158 c -0.025,-0.475 -0.549,-1.073 -1.073,-1.099 -1.274,-0.074 -2.472,0.974 -3.895,0.974 -1.622,0 -2.546,-1.423 -2.67,-2.896 l 1.398,0 c 0.075,0.549 0.548,1.123 1.123,1.123 1.248,0 2.471,-1.023 3.843,-1.023 1.699,0 2.522,1.348 2.671,2.846 -0.499,-0.026 -0.873,0 -1.347,0 l -0.05,0.075 m -1.423,-14.228 c -0.075,-2.322 -1.797,-2.921 -2.671,-2.921 -1.272,0.025 -1.897,0.474 -2.071,1.348 -0.051,0.249 -0.075,0.55 -0.075,0.874 0.024,0.848 0.399,1.697 1.373,2.071 1.173,0.499 2.446,0.9 3.544,1.523 0,-0.948 0,-1.897 -0.05,-2.82 l -0.05,-0.075 m 3.819,-3.146 c -1.248,-0.1 -1.198,0.5 -1.198,1.148 l 0,4.743 c 0,1.298 -0.025,2.497 -0.125,3.72 -0.149,0.923 -0.549,3.295 -4.293,3.295 -2.771,0 -4.344,-0.899 -4.767,-2.896 -0.1,-0.325 -0.151,-0.649 -0.125,-1.048 l 1.947,0 c 0.374,1.472 0.624,2.022 2.52,2.022 1.598,0 2.421,-0.474 2.421,-2.097 0,-1.948 -0.748,-1.149 -5.291,-3.121 -1.174,-0.449 -1.847,-1.248 -2.072,-2.146 -0.249,-0.524 -0.274,-1.024 -0.274,-1.123 0,-2.671 1.273,-4.069 4.143,-4.069 1.498,0 2.971,1.048 3.619,2.371 l 0.051,0 c 0.124,-0.973 0.349,-1.497 0.724,-1.797 0.524,-0.275 1.198,-0.299 2.196,-0.25 0.225,0.051 0.449,0.076 0.674,0.1 0,0.374 -0.15,0.699 -0.15,1.099 l 0,0.049 m -20.259,-3.294 c 0.15,-0.175 0.224,-0.374 0.349,-0.55 0.2,0.051 0.449,0.125 0.674,0.15 0.325,0.1 0.624,0.125 0.924,0.026 0.774,-0.301 0.874,-1.074 0.674,-1.349 -0.225,-0.349 -0.525,-0.624 -1.398,-0.598 -0.324,0.024 -0.624,0.074 -0.898,0.173 -0.25,0.101 -0.475,0.201 -0.725,0.276 -0.149,-0.25 -0.199,-0.674 -0.523,-0.998 0.748,-0.325 1.497,-0.526 2.321,-0.625 1.548,-0.05 3.22,0.5 3.295,2.246 0.074,1.174 -0.874,1.748 -1.698,1.898 -0.45,0.074 -0.923,0.074 -1.247,-0.051 l -0.051,0.051 c 0.325,0.399 0.675,0.774 0.999,1.172 1.947,0.176 3.144,1.299 3.844,2.821 0.349,0.699 0.524,1.423 0.574,2.248 l -2.397,0 c -0.049,-0.725 -0.149,-1.473 -0.499,-1.999 -0.374,-0.648 -1.023,-1.147 -2.172,-1.147 -1.073,0 -1.772,0.573 -2.246,1.272 -0.649,0.95 -0.749,2.422 -0.749,3.471 0,0.873 -0.025,2.396 0.375,3.619 0.399,1.223 1.223,2.147 2.721,2.147 0.923,0 1.572,-0.276 1.996,-0.699 0.4,-0.524 0.55,-1.274 0.574,-2.022 l 2.371,0 c -0.024,0.848 -0.199,1.647 -0.573,2.296 -0.824,1.522 -2.297,2.472 -4.294,2.472 -2.845,0 -4.293,-1.649 -5.042,-3.77 -0.425,-1.174 -0.574,-2.496 -0.574,-3.794 0,-0.924 0.075,-1.798 0.3,-2.596 0.574,-2.221 1.972,-3.969 4.617,-4.243 -0.474,-0.599 -0.923,-1.223 -1.397,-1.822 l -0.125,-0.075 m -9.351,6.44 c -0.075,-2.322 -1.798,-2.921 -2.671,-2.921 -1.273,0.025 -1.897,0.474 -2.072,1.348 -0.05,0.249 -0.074,0.55 -0.074,0.874 0.024,0.848 0.399,1.697 1.372,2.071 1.174,0.499 2.446,0.9 3.545,1.523 0,-0.948 0,-1.897 -0.05,-2.82 l -0.05,-0.075 m 3.818,-3.146 c -1.248,-0.1 -1.197,0.5 -1.197,1.148 l 0,4.743 c 0,1.298 -0.025,2.497 -0.125,3.72 -0.15,0.923 -0.549,3.295 -4.294,3.295 -2.77,0 -4.343,-0.899 -4.767,-2.896 -0.1,-0.325 -0.15,-0.649 -0.124,-1.048 l 1.946,0 c 0.375,1.472 0.624,2.022 2.521,2.022 1.598,0 2.421,-0.474 2.421,-2.097 0,-1.948 -0.748,-1.149 -5.292,-3.121 -1.173,-0.449 -1.846,-1.248 -2.071,-2.146 -0.25,-0.524 -0.274,-1.024 -0.274,-1.123 0,-2.671 1.272,-4.069 4.143,-4.069 1.497,0 2.971,1.048 3.619,2.371 l 0.05,0 c 0.125,-0.973 0.35,-1.497 0.724,-1.797 0.524,-0.275 1.198,-0.299 2.197,-0.25 0.225,0.051 0.449,0.076 0.674,0.1 0,0.374 -0.151,0.699 -0.151,1.099 l 0,0.049 m -19.615,-1.123 2.671,0 c 1.547,4.543 3.069,9.111 4.617,13.654 l -2.52,0 c -0.7,-2.621 -1.324,-4.493 -2.023,-7.113 -0.424,-1.498 -0.873,-3.022 -1.323,-4.519 l -0.024,0 c -0.724,2.396 -1.473,4.818 -2.147,7.189 -0.425,1.472 -0.849,2.97 -1.273,4.443 l -2.571,0 c 1.523,-4.543 3.045,-9.111 4.568,-13.654 l 0.025,0 M -65.475,0 c 0,-1.522 -0.199,-2.671 -0.698,-3.395 -0.524,-0.949 -1.323,-1.522 -2.546,-1.522 -1.198,0 -1.997,0.573 -2.521,1.522 -0.525,0.849 -0.724,2.147 -0.724,3.819 0,1.873 0.249,3.121 0.798,3.795 0.55,0.924 1.349,1.373 2.447,1.373 1.073,0 1.897,-0.425 2.446,-1.348 0.549,-0.799 0.798,-2.172 0.798,-4.219 l 0,-0.025 m 2.547,0.849 c 0,1.997 -0.4,3.569 -1.299,4.618 -1.023,1.322 -2.52,2.096 -4.492,2.096 -2.197,0 -3.769,-0.999 -4.593,-2.72 -0.824,-1.048 -1.198,-2.597 -1.198,-4.519 0.025,-2.745 0.524,-4.443 1.447,-5.366 1.099,-1.373 2.596,-1.897 4.344,-1.897 1.747,0 3.244,0.524 4.343,1.921 0.923,1.075 1.473,2.897 1.473,5.842 l -0.025,0.025 m -22.873,6.29 -2.346,0 0,-13.629 2.496,0 0,9.111 c 0,0.749 0.1,1.274 0.899,1.748 0.524,0.748 1.298,1.123 2.221,1.123 1.798,0 2.346,-1.098 2.346,-2.721 l 0,-9.261 2.497,0 0,7.114 c 0,1.224 -0.05,2.347 -0.15,3.47 -0.15,2.396 -1.723,3.42 -3.844,3.42 -1.747,0 -2.871,-0.774 -3.994,-2.122 l -0.05,0 -0.075,1.747 m -6.923,5.117 -2.67,0 0,-18.746 2.67,0 0,18.746 z M -113.963,1.822 c -0.05,0.276 -0.125,0.624 -0.15,0.974 0.05,0.449 0.175,0.874 0.35,1.248 0.374,0.849 1.073,1.548 2.321,1.548 1.223,0 1.872,-0.699 2.222,-1.548 0.324,-0.698 0.324,-1.622 0.374,-2.296 l -5.117,0.074 m 5.117,-4.018 c 0.05,-1.498 -0.624,-3.095 -2.646,-2.921 0,0.099 0.05,0.099 0.125,0.099 -2.022,0 -2.696,1.774 -2.821,3.571 0.125,0.523 0.325,1.073 0.475,1.422 l 7.438,0 c -0.05,1.324 -0.124,2.746 -0.524,3.969 -0.624,2.022 -1.822,3.595 -4.743,3.595 -2.321,0 -3.669,-1.573 -4.493,-3.495 -0.524,-1.224 -0.749,-2.671 -0.749,-3.919 0,-2.172 0.4,-3.645 1.074,-4.617 1.048,-1.748 2.521,-2.348 4.243,-2.348 2.272,0 3.844,1.199 4.593,3.022 0.25,0.498 0.399,1.047 0.424,1.672 l -2.396,-0.05 M -128.804,0 c 0,-1.522 -0.2,-2.671 -0.699,-3.395 -0.524,-0.949 -1.323,-1.522 -2.546,-1.522 -1.198,0 -1.997,0.573 -2.521,1.522 -0.524,0.849 -0.724,2.147 -0.724,3.819 0,1.873 0.25,3.121 0.799,3.795 0.549,0.924 1.348,1.373 2.446,1.373 1.073,0 1.897,-0.425 2.446,-1.348 0.549,-0.799 0.799,-2.172 0.799,-4.219 l 0,-0.025 m 2.546,0.849 c 0,1.997 -0.399,3.569 -1.298,4.618 -1.023,1.322 -2.521,2.096 -4.493,2.096 -2.197,0 -3.769,-0.999 -4.593,-2.72 -0.824,-1.048 -1.198,-2.597 -1.198,-4.519 0.025,-2.745 0.524,-4.443 1.448,-5.366 1.098,-1.373 2.596,-1.897 4.343,-1.897 1.747,0 3.245,0.524 4.343,1.921 0.924,1.075 1.473,2.897 1.473,5.842 l -0.025,0.025 m -22.872,6.29 -2.347,0 0,-13.629 2.497,0 0,9.111 c 0,0.749 0.099,1.274 0.898,1.748 0.524,0.748 1.298,1.123 2.222,1.123 1.797,0 2.346,-1.098 2.346,-2.721 l 0,-9.261 2.496,0 0,7.114 c 0,1.224 -0.05,2.347 -0.15,3.47 -0.149,2.396 -1.722,3.42 -3.844,3.42 -1.747,0 -2.87,-0.774 -3.993,-2.122 l -0.051,0 -0.074,1.747 m -6.237,5.192 -2.496,0 0,-2.696 2.496,0 0,2.696 z m 0,-5.192 -2.496,0 0,-13.629 2.496,0 0,13.629 z m -6.262,-3.445 c 0,0.55 -0.1,0.999 -0.274,1.373 -0.675,1.847 -2.397,2.546 -4.668,2.546 -1.972,0 -3.695,-0.924 -4.368,-2.621 -0.175,-0.424 -0.275,-0.924 -0.275,-1.472 l 0,0.174 c 0,-5.241 7.214,-3.094 7.513,-6.365 0.075,0.05 0.125,0.101 0.125,0.125 0,-0.524 -0.1,-0.999 -0.299,-1.373 -0.4,-0.724 -1.249,-1.073 -2.396,-1.223 -2.022,-0.174 -2.722,0.798 -2.622,2.521 l -2.396,0 c 0.05,-2.196 1.847,-4.268 4.868,-4.193 2.521,-0.026 4.318,0.998 5.067,2.72 0.25,0.5 0.374,1.074 0.374,1.673 0,0.425 -0.075,0.749 -0.225,1.024 -0.549,1.772 -2.321,1.921 -4.343,2.52 -0.624,0.176 -1.173,0.3 -1.598,0.5 -0.823,0.35 -1.447,0.873 -1.347,2.071 0,1.449 0.824,2.122 2.271,2.222 1.698,0.1 2.297,-0.574 2.197,-2.146 l 2.396,-0.076 m -20.75,3.445 -2.347,0 0,-13.629 2.496,0 0,9.111 c 0,0.749 0.1,1.274 0.899,1.748 0.524,0.748 1.298,1.123 2.222,1.123 1.796,0 2.346,-1.098 2.346,-2.721 l 0,-9.261 2.496,0 0,7.114 c 0,1.224 -0.05,2.347 -0.15,3.47 -0.149,2.396 -1.722,3.42 -3.844,3.42 -1.747,0 -2.871,-0.774 -3.994,-2.122 l -0.05,0 -0.074,1.747 m -5.619,-13.629 0,2.197 -8.412,0 0,6.29 7.639,0 0,2.196 -7.639,0 0,5.842 8.337,0 0,2.196 -10.983,0 0,-18.746 11.058,0.025"
               id="path2476"
               style="fill:#100f0d;fill-opacity:1;fill-rule:nonzero;stroke:none" />
          </g>
        </g>
      </g>
    </g>
  </g>
</svg>
